<svg width="101" height="100" viewBox="0 0 101 100" fill="none" xmlns="http://www.w3.org/2000/svg">
<path d="M50.7116 18.5186C59.452 18.5186 66.8814 21.6428 72.9997 27.8913C79.118 34.1397 82.1771 41.7272 82.1771 50.6536C82.1771 55.1167 81.3031 59.4684 79.555 63.7084C77.8069 67.9484 75.2941 71.519 72.0164 74.4201C68.7387 77.3211 64.9148 79.6643 60.5446 81.4496C59.2335 81.4496 58.578 80.7801 58.578 79.4412V76.4285V70.7379C58.578 68.06 57.9225 66.0516 56.6114 64.7126C66.2259 63.82 71.0331 58.4641 71.0331 48.6451C71.0331 45.5209 69.9405 42.843 67.7554 40.6114C68.6295 37.9334 68.411 35.0324 67.0999 31.9081C65.3518 31.4618 62.5112 32.5776 58.578 35.2555C55.9559 34.3629 53.3337 33.9166 50.7116 33.9166C48.0895 33.9166 45.4674 34.3629 42.8452 35.2555C41.0971 33.9166 39.4583 33.0239 37.9287 32.5776C36.3992 32.1313 35.4159 31.9081 34.9789 31.9081H34.3233C33.0123 35.0324 32.7937 37.9334 33.6678 40.6114C31.9197 42.843 31.0457 45.5209 31.0457 48.6451C31.0457 58.4641 35.6344 63.82 44.8118 64.7126C43.9378 65.6053 43.2823 67.1674 42.8452 69.399C38.912 71.1842 35.8529 70.2916 33.6678 66.7211C32.3567 64.4895 30.8272 63.3737 29.0791 63.3737C27.768 63.3737 27.2217 63.5968 27.4402 64.0431C27.6587 64.4895 28.205 64.9358 29.0791 65.3821C30.3901 66.2747 31.4827 67.8368 32.3567 70.0684C33.6678 73.639 37.164 74.7548 42.8452 73.4158V77.4327V79.4412C42.8452 80.7801 42.1897 81.4496 40.8786 81.4496C34.3233 79.218 29.0791 75.3127 25.1459 69.7337C21.2127 64.1547 19.2461 57.7947 19.2461 50.6536C19.2461 41.7272 22.3052 34.1397 28.4235 27.8913C34.5418 21.6428 41.9712 18.5186 50.7116 18.5186Z" fill="#232426"/>
</svg>
