<svg width="125" height="19" viewBox="0 0 125 19" fill="none" xmlns="http://www.w3.org/2000/svg">
<path d="M12.0909 6.1875C11.9716 5.77273 11.804 5.40625 11.5881 5.08807C11.3722 4.7642 11.108 4.49148 10.7955 4.26989C10.4886 4.04261 10.1364 3.86932 9.73864 3.75C9.34659 3.63068 8.91193 3.57102 8.43466 3.57102C7.54261 3.57102 6.75852 3.79261 6.08239 4.23579C5.41193 4.67898 4.8892 5.32386 4.5142 6.17045C4.1392 7.01136 3.9517 8.03977 3.9517 9.25568C3.9517 10.4716 4.13636 11.5057 4.50568 12.358C4.875 13.2102 5.39773 13.8608 6.07386 14.3097C6.75 14.7528 7.5483 14.9744 8.46875 14.9744C9.30398 14.9744 10.017 14.8267 10.608 14.5312C11.2045 14.2301 11.6591 13.8068 11.9716 13.2614C12.2898 12.7159 12.4489 12.071 12.4489 11.3267L13.1989 11.4375H8.69886V8.65909H16.0028V10.858C16.0028 12.392 15.679 13.7102 15.0312 14.8125C14.3835 15.9091 13.4915 16.7557 12.3551 17.3523C11.2188 17.9432 9.91761 18.2386 8.4517 18.2386C6.81534 18.2386 5.37784 17.8778 4.1392 17.1562C2.90057 16.429 1.93466 15.3977 1.24148 14.0625C0.553977 12.7216 0.210227 11.1307 0.210227 9.28977C0.210227 7.875 0.414773 6.61364 0.823864 5.50568C1.23864 4.39205 1.81818 3.44886 2.5625 2.67614C3.30682 1.90341 4.1733 1.31534 5.16193 0.911931C6.15057 0.508522 7.22159 0.306818 8.375 0.306818C9.36364 0.306818 10.2841 0.451704 11.1364 0.741477C11.9886 1.02557 12.7443 1.42898 13.4034 1.9517C14.0682 2.47443 14.6108 3.09659 15.0312 3.81818C15.4517 4.53409 15.7216 5.32386 15.8409 6.1875H12.0909ZM22.4652 0.545454V18H18.7749V0.545454H22.4652ZM24.8366 3.58807V0.545454H39.1719V3.58807H33.8281V18H30.1804V3.58807H24.8366Z" fill="#F2F2F2"/>
<path d="M57.8686 0.545454H61.5589V11.8807C61.5589 13.1534 61.255 14.267 60.647 15.2216C60.0447 16.1761 59.201 16.9205 58.1158 17.4545C57.0305 17.983 55.7663 18.2472 54.3232 18.2472C52.8743 18.2472 51.6072 17.983 50.522 17.4545C49.4368 16.9205 48.593 16.1761 47.9908 15.2216C47.3885 14.267 47.0874 13.1534 47.0874 11.8807V0.545454H50.7777V11.5653C50.7777 12.2301 50.9226 12.821 51.2124 13.3381C51.5078 13.8551 51.9226 14.2614 52.4567 14.5568C52.9908 14.8523 53.6129 15 54.3232 15C55.0391 15 55.6612 14.8523 56.1896 14.5568C56.7237 14.2614 57.1357 13.8551 57.4254 13.3381C57.7209 12.821 57.8686 12.2301 57.8686 11.5653V0.545454ZM64.5952 18V0.545454H71.4815C72.8054 0.545454 73.9332 0.798295 74.8651 1.30398C75.7969 1.80398 76.5071 2.5 76.9957 3.39204C77.4901 4.27841 77.7372 5.30114 77.7372 6.46023C77.7372 7.61932 77.4872 8.64205 76.9872 9.52841C76.4872 10.4148 75.7628 11.1051 74.8139 11.5994C73.8707 12.0937 72.7287 12.3409 71.3878 12.3409H66.9986V9.38352H70.7912C71.5014 9.38352 72.0866 9.26136 72.5469 9.01705C73.0128 8.76705 73.3594 8.4233 73.5866 7.9858C73.8196 7.54261 73.9361 7.03409 73.9361 6.46023C73.9361 5.88068 73.8196 5.375 73.5866 4.94318C73.3594 4.50568 73.0128 4.16761 72.5469 3.92898C72.081 3.68466 71.4901 3.5625 70.7741 3.5625H68.2855V18H64.5952ZM80.1342 18V0.545454H87.0206C88.3445 0.545454 89.4723 0.798295 90.4041 1.30398C91.3359 1.80398 92.0462 2.5 92.5348 3.39204C93.0291 4.27841 93.2763 5.30114 93.2763 6.46023C93.2763 7.61932 93.0263 8.64205 92.5263 9.52841C92.0263 10.4148 91.3018 11.1051 90.353 11.5994C89.4098 12.0937 88.2678 12.3409 86.9268 12.3409H82.5376V9.38352H86.3303C87.0405 9.38352 87.6257 9.26136 88.0859 9.01705C88.5518 8.76705 88.8984 8.4233 89.1257 7.9858C89.3587 7.54261 89.4751 7.03409 89.4751 6.46023C89.4751 5.88068 89.3587 5.375 89.1257 4.94318C88.8984 4.50568 88.5518 4.16761 88.0859 3.92898C87.62 3.68466 87.0291 3.5625 86.3132 3.5625H83.8246V18H80.1342ZM95.6733 18V0.545454H107.435V3.58807H99.3636V7.74716H106.83V10.7898H99.3636V14.9574H107.469V18H95.6733ZM110.369 18V0.545454H117.255C118.573 0.545454 119.698 0.78125 120.63 1.25284C121.567 1.71875 122.281 2.38068 122.769 3.23864C123.263 4.09091 123.511 5.09375 123.511 6.24716C123.511 7.40625 123.261 8.40341 122.761 9.23864C122.261 10.0682 121.536 10.7045 120.587 11.1477C119.644 11.5909 118.502 11.8125 117.161 11.8125H112.55V8.84659H116.565C117.269 8.84659 117.854 8.75 118.32 8.55682C118.786 8.36364 119.133 8.07386 119.36 7.6875C119.593 7.30114 119.71 6.82102 119.71 6.24716C119.71 5.66761 119.593 5.17898 119.36 4.78125C119.133 4.38352 118.783 4.08239 118.312 3.87784C117.846 3.66761 117.258 3.5625 116.548 3.5625H114.059V18H110.369ZM119.795 10.0568L124.133 18H120.059L115.815 10.0568H119.795Z" fill="#04BF68"/>
</svg>
